<?xml version="1.0" encoding="UTF-8" standalone="no"?>
<svg xmlns="http://www.w3.org/2000/svg" xmlns:xlink="http://www.w3.org/1999/xlink" contentScriptType="application/ecmascript" contentStyleType="text/css" height="1316px" preserveAspectRatio="none" style="width:2603px;height:1316px;" version="1.1" viewBox="0 0 2603 1316" width="2603px" zoomAndPan="magnify"><defs><filter height="300%" id="f16o839t3fwmhp" width="300%" x="-1" y="-1"><feGaussianBlur result="blurOut" stdDeviation="2.0"/><feColorMatrix in="blurOut" result="blurOut2" type="matrix" values="0 0 0 0 0 0 0 0 0 0 0 0 0 0 0 0 0 0 .4 0"/><feOffset dx="4.0" dy="4.0" in="blurOut2" result="blurOut3"/><feBlend in="SourceGraphic" in2="blurOut3" mode="normal"/></filter></defs><g><!--MD5=[1f2cfc53d9d308f53762fd0fcbaa4873]
cluster Controller--><polygon fill="#FFFFFF" filter="url(#f16o839t3fwmhp)" points="83.5,24,168.5,24,175.5,46.2969,1307.5,46.2969,1307.5,908,83.5,908,83.5,24" style="stroke: #000000; stroke-width: 1.5;"/><line style="stroke: #000000; stroke-width: 1.5;" x1="83.5" x2="175.5" y1="46.2969" y2="46.2969"/><text fill="#000000" font-family="sans-serif" font-size="14" font-weight="bold" lengthAdjust="spacingAndGlyphs" textLength="79" x="87.5" y="38.9951">Controller</text><!--MD5=[15636c1ca4a123c16a2a1a8e90aca7a9]
cluster Model--><polygon fill="#FFFFFF" filter="url(#f16o839t3fwmhp)" points="1331.5,458,1384.5,458,1391.5,480.2969,2035.5,480.2969,2035.5,1304,1331.5,1304,1331.5,458" style="stroke: #000000; stroke-width: 1.5;"/><line style="stroke: #000000; stroke-width: 1.5;" x1="1331.5" x2="1391.5" y1="480.2969" y2="480.2969"/><text fill="#000000" font-family="sans-serif" font-size="14" font-weight="bold" lengthAdjust="spacingAndGlyphs" textLength="47" x="1335.5" y="472.9951">Model</text><!--MD5=[e320b41f2d43b11d6de1346cab4ea5fc]
cluster View--><polygon fill="#FFFFFF" filter="url(#f16o839t3fwmhp)" points="2059.5,266.5,2104.5,266.5,2111.5,288.7969,2490.5,288.7969,2490.5,882.5,2059.5,882.5,2059.5,266.5" style="stroke: #000000; stroke-width: 1.5;"/><line style="stroke: #000000; stroke-width: 1.5;" x1="2059.5" x2="2111.5" y1="288.7969" y2="288.7969"/><text fill="#000000" font-family="sans-serif" font-size="14" font-weight="bold" lengthAdjust="spacingAndGlyphs" textLength="39" x="2063.5" y="281.4951">View</text><!--MD5=[44c6e631e2d068bdc58a8728fbbdad7b]
class Clickable--><rect fill="#FEFECE" filter="url(#f16o839t3fwmhp)" height="60.8047" id="Clickable" style="stroke: #A80036; stroke-width: 1.5;" width="290" x="1001.5" y="84.5"/><ellipse cx="1063.25" cy="100.5" fill="#B4A7E5" rx="11" ry="11" style="stroke: #A80036; stroke-width: 1.0;"/><path d="M1064.2031,97.2813 L1064.2031,103.7969 L1065.9219,103.7969 C1066.375,103.7969 1066.5156,103.8281 1066.6875,103.9531 C1066.9219,104.125 1067.0313,104.375 1067.0313,104.6563 C1067.0313,105.2188 1066.6719,105.5 1065.9219,105.5 L1060.7813,105.5 C1060.375,105.5 1060.1719,105.4531 1060.0156,105.3281 C1059.7969,105.1719 1059.6563,104.9063 1059.6563,104.6563 C1059.6563,104.3594 1059.8125,104.0781 1060.0625,103.9219 C1060.2188,103.8125 1060.3438,103.7969 1060.7813,103.7969 L1062.5,103.7969 L1062.5,97.2813 L1060.7813,97.2813 C1060.3594,97.2813 1060.1719,97.25 1060.0156,97.1406 C1059.7969,96.9688 1059.6563,96.7188 1059.6563,96.4375 C1059.6563,96.1563 1059.8125,95.8594 1060.0625,95.7031 C1060.2188,95.6094 1060.3438,95.5938 1060.7813,95.5938 L1065.9219,95.5938 C1066.375,95.5938 1066.5156,95.625 1066.6875,95.7344 C1066.9219,95.9063 1067.0313,96.1719 1067.0313,96.4375 C1067.0313,96.7344 1066.8906,97.0156 1066.625,97.1719 C1066.5,97.25 1066.3125,97.2813 1065.9219,97.2813 Z "/><text fill="#000000" font-family="sans-serif" font-size="12" font-style="italic" lengthAdjust="spacingAndGlyphs" textLength="55" x="1083.75" y="104.6543">Clickable</text><rect fill="#FFFFFF" height="15.9688" style="stroke: #000000; stroke-width: 1.0; stroke-dasharray: 2.0,2.0;" width="101" x="1193.5" y="81.5"/><text fill="#000000" font-family="sans-serif" font-size="12" font-style="italic" lengthAdjust="spacingAndGlyphs" textLength="99" x="1194.5" y="93.6387">CoordinateType</text><line style="stroke: #A80036; stroke-width: 1.5;" x1="1002.5" x2="1290.5" y1="116.5" y2="116.5"/><line style="stroke: #A80036; stroke-width: 1.5;" x1="1002.5" x2="1290.5" y1="124.5" y2="124.5"/><text fill="#000000" font-family="sans-serif" font-size="11" lengthAdjust="spacingAndGlyphs" textLength="278" x="1007.5" y="138.7104">isClicked(const Point&lt;CoordinateType&gt; &amp;) : bool</text><!--MD5=[f8e7078f77c005d15b486c0c98deb1e6]
class Action--><rect fill="#FEFECE" filter="url(#f16o839t3fwmhp)" height="73.6094" id="Action" style="stroke: #A80036; stroke-width: 1.5;" width="162" x="1129.5" y="295"/><ellipse cx="1186.75" cy="311" fill="#ADD1B2" rx="11" ry="11" style="stroke: #A80036; stroke-width: 1.0;"/><path d="M1189.0938,306.6719 L1189.2656,306.75 C1189.4844,306.4375 1189.6875,306.3438 1189.9844,306.3438 C1190.2813,306.3438 1190.5625,306.4844 1190.7188,306.75 C1190.8125,306.9063 1190.8281,307.0313 1190.8281,307.4688 L1190.8281,308.8906 C1190.8281,309.3125 1190.7969,309.5 1190.6875,309.6563 C1190.5156,309.875 1190.25,310.0156 1189.9844,310.0156 C1189.7656,310.0156 1189.5313,309.9063 1189.3906,309.7656 C1189.25,309.6406 1189.2188,309.5156 1189.1563,309.1094 C1189.0625,308.7031 1188.8906,308.4844 1188.4063,308.2031 C1187.9375,307.9531 1187.3281,307.7969 1186.75,307.7969 C1185.0156,307.7969 1183.7656,309.1094 1183.7656,310.8906 L1183.7656,311.9844 C1183.7656,313.6875 1185.0625,314.7813 1187.1094,314.7813 C1187.875,314.7813 1188.5625,314.6563 1188.9844,314.3906 C1189.1719,314.2969 1189.1719,314.2969 1189.625,313.8125 C1189.8125,313.625 1190.0156,313.5469 1190.2344,313.5469 C1190.7031,313.5469 1191.0938,313.9375 1191.0938,314.3906 C1191.0938,314.7813 1190.7656,315.2344 1190.1875,315.6406 C1189.4375,316.1875 1188.2813,316.4844 1187.0625,316.4844 C1184.1719,316.4844 1182.0625,314.5938 1182.0625,312.0156 L1182.0625,310.8906 C1182.0625,308.1719 1184.0625,306.0938 1186.6875,306.0938 C1187.5625,306.0938 1188.1563,306.2344 1189.0938,306.6719 Z "/><text fill="#000000" font-family="sans-serif" font-size="12" lengthAdjust="spacingAndGlyphs" textLength="39" x="1207.25" y="315.1543">Action</text><line style="stroke: #A80036; stroke-width: 1.5;" x1="1130.5" x2="1290.5" y1="327" y2="327"/><line style="stroke: #A80036; stroke-width: 1.5;" x1="1130.5" x2="1290.5" y1="335" y2="335"/><text fill="#000000" font-family="sans-serif" font-size="11" lengthAdjust="spacingAndGlyphs" textLength="42" x="1135.5" y="349.2104">Action()</text><text fill="#000000" font-family="sans-serif" font-size="11" lengthAdjust="spacingAndGlyphs" textLength="150" x="1135.5" y="362.0151">operator()(sf::Event) : void</text><!--MD5=[b4e66ba2b590a72a93d1235c99a1dac3]
class ActionManager--><rect fill="#FEFECE" filter="url(#f16o839t3fwmhp)" height="112.0234" id="ActionManager" style="stroke: #A80036; stroke-width: 1.5;" width="464" x="502.5" y="59"/><ellipse cx="683.25" cy="75" fill="#ADD1B2" rx="11" ry="11" style="stroke: #A80036; stroke-width: 1.0;"/><path d="M685.5938,70.6719 L685.7656,70.75 C685.9844,70.4375 686.1875,70.3438 686.4844,70.3438 C686.7813,70.3438 687.0625,70.4844 687.2188,70.75 C687.3125,70.9063 687.3281,71.0313 687.3281,71.4688 L687.3281,72.8906 C687.3281,73.3125 687.2969,73.5 687.1875,73.6563 C687.0156,73.875 686.75,74.0156 686.4844,74.0156 C686.2656,74.0156 686.0313,73.9063 685.8906,73.7656 C685.75,73.6406 685.7188,73.5156 685.6563,73.1094 C685.5625,72.7031 685.3906,72.4844 684.9063,72.2031 C684.4375,71.9531 683.8281,71.7969 683.25,71.7969 C681.5156,71.7969 680.2656,73.1094 680.2656,74.8906 L680.2656,75.9844 C680.2656,77.6875 681.5625,78.7813 683.6094,78.7813 C684.375,78.7813 685.0625,78.6563 685.4844,78.3906 C685.6719,78.2969 685.6719,78.2969 686.125,77.8125 C686.3125,77.625 686.5156,77.5469 686.7344,77.5469 C687.2031,77.5469 687.5938,77.9375 687.5938,78.3906 C687.5938,78.7813 687.2656,79.2344 686.6875,79.6406 C685.9375,80.1875 684.7813,80.4844 683.5625,80.4844 C680.6719,80.4844 678.5625,78.5938 678.5625,76.0156 L678.5625,74.8906 C678.5625,72.1719 680.5625,70.0938 683.1875,70.0938 C684.0625,70.0938 684.6563,70.2344 685.5938,70.6719 Z "/><text fill="#000000" font-family="sans-serif" font-size="12" lengthAdjust="spacingAndGlyphs" textLength="94" x="703.75" y="79.1543">ActionManager</text><line style="stroke: #A80036; stroke-width: 1.5;" x1="503.5" x2="965.5" y1="91" y2="91"/><line style="stroke: #A80036; stroke-width: 1.5;" x1="503.5" x2="965.5" y1="99" y2="99"/><text fill="#000000" font-family="sans-serif" font-size="11" lengthAdjust="spacingAndGlyphs" textLength="375" x="508.5" y="113.2104">ActionManager(std::shared_ptr&lt;Game&gt;, std::shared_ptr&lt;Menu&gt;)</text><text fill="#000000" font-family="sans-serif" font-size="11" lengthAdjust="spacingAndGlyphs" textLength="235" x="508.5" y="126.0151">setGame(std::shared_ptr&lt;Game&gt;) : void</text><text fill="#000000" font-family="sans-serif" font-size="11" lengthAdjust="spacingAndGlyphs" textLength="227" x="508.5" y="138.8198">setMenu(std::shared_ptr&lt;Menu&gt;) : void</text><text fill="#000000" font-family="sans-serif" font-size="11" lengthAdjust="spacingAndGlyphs" textLength="452" x="508.5" y="151.6245">registerEvent(sf::Event::EventType, const std::function&lt;void (sf::Event)&gt;) : void</text><text fill="#000000" font-family="sans-serif" font-size="11" lengthAdjust="spacingAndGlyphs" textLength="236" x="508.5" y="164.4292">getAction(sf::Event::EventType) : Action &amp;</text><!--MD5=[ef8f8e825ec35b6db9451ba2eb8a8155]
class FileUtils--><rect fill="#FEFECE" filter="url(#f16o839t3fwmhp)" height="73.6094" id="FileUtils" style="stroke: #A80036; stroke-width: 1.5;" width="367" x="100" y="78"/><ellipse cx="255.25" cy="94" fill="#ADD1B2" rx="11" ry="11" style="stroke: #A80036; stroke-width: 1.0;"/><path d="M257.5938,89.6719 L257.7656,89.75 C257.9844,89.4375 258.1875,89.3438 258.4844,89.3438 C258.7813,89.3438 259.0625,89.4844 259.2188,89.75 C259.3125,89.9063 259.3281,90.0313 259.3281,90.4688 L259.3281,91.8906 C259.3281,92.3125 259.2969,92.5 259.1875,92.6563 C259.0156,92.875 258.75,93.0156 258.4844,93.0156 C258.2656,93.0156 258.0313,92.9063 257.8906,92.7656 C257.75,92.6406 257.7188,92.5156 257.6563,92.1094 C257.5625,91.7031 257.3906,91.4844 256.9063,91.2031 C256.4375,90.9531 255.8281,90.7969 255.25,90.7969 C253.5156,90.7969 252.2656,92.1094 252.2656,93.8906 L252.2656,94.9844 C252.2656,96.6875 253.5625,97.7813 255.6094,97.7813 C256.375,97.7813 257.0625,97.6563 257.4844,97.3906 C257.6719,97.2969 257.6719,97.2969 258.125,96.8125 C258.3125,96.625 258.5156,96.5469 258.7344,96.5469 C259.2031,96.5469 259.5938,96.9375 259.5938,97.3906 C259.5938,97.7813 259.2656,98.2344 258.6875,98.6406 C257.9375,99.1875 256.7813,99.4844 255.5625,99.4844 C252.6719,99.4844 250.5625,97.5938 250.5625,95.0156 L250.5625,93.8906 C250.5625,91.1719 252.5625,89.0938 255.1875,89.0938 C256.0625,89.0938 256.6563,89.2344 257.5938,89.6719 Z "/><text fill="#000000" font-family="sans-serif" font-size="12" lengthAdjust="spacingAndGlyphs" textLength="48" x="275.75" y="98.1543">FileUtils</text><line style="stroke: #A80036; stroke-width: 1.5;" x1="101" x2="466" y1="110" y2="110"/><line style="stroke: #A80036; stroke-width: 1.5;" x1="101" x2="466" y1="118" y2="118"/><text fill="#000000" font-family="sans-serif" font-size="11" lengthAdjust="spacingAndGlyphs" textLength="333" x="106" y="132.2104">static readFile(const char *) : std::vector&lt;Point&lt;double&gt;&gt;</text><text fill="#000000" font-family="sans-serif" font-size="11" lengthAdjust="spacingAndGlyphs" textLength="355" x="106" y="145.0151">static writeFile(std::vector&lt;Point&lt;double&gt;&gt;, std::string) : void</text><!--MD5=[b6dcce5e5ef3c84b0b048d11301373dd]
class Game--><rect fill="#FEFECE" filter="url(#f16o839t3fwmhp)" height="201.6563" id="Game" style="stroke: #A80036; stroke-width: 1.5;" width="529" x="565" y="231"/><ellipse cx="807.25" cy="247" fill="#ADD1B2" rx="11" ry="11" style="stroke: #A80036; stroke-width: 1.0;"/><path d="M809.5938,242.6719 L809.7656,242.75 C809.9844,242.4375 810.1875,242.3438 810.4844,242.3438 C810.7813,242.3438 811.0625,242.4844 811.2188,242.75 C811.3125,242.9063 811.3281,243.0313 811.3281,243.4688 L811.3281,244.8906 C811.3281,245.3125 811.2969,245.5 811.1875,245.6563 C811.0156,245.875 810.75,246.0156 810.4844,246.0156 C810.2656,246.0156 810.0313,245.9063 809.8906,245.7656 C809.75,245.6406 809.7188,245.5156 809.6563,245.1094 C809.5625,244.7031 809.3906,244.4844 808.9063,244.2031 C808.4375,243.9531 807.8281,243.7969 807.25,243.7969 C805.5156,243.7969 804.2656,245.1094 804.2656,246.8906 L804.2656,247.9844 C804.2656,249.6875 805.5625,250.7813 807.6094,250.7813 C808.375,250.7813 809.0625,250.6563 809.4844,250.3906 C809.6719,250.2969 809.6719,250.2969 810.125,249.8125 C810.3125,249.625 810.5156,249.5469 810.7344,249.5469 C811.2031,249.5469 811.5938,249.9375 811.5938,250.3906 C811.5938,250.7813 811.2656,251.2344 810.6875,251.6406 C809.9375,252.1875 808.7813,252.4844 807.5625,252.4844 C804.6719,252.4844 802.5625,250.5938 802.5625,248.0156 L802.5625,246.8906 C802.5625,244.1719 804.5625,242.0938 807.1875,242.0938 C808.0625,242.0938 808.6563,242.2344 809.5938,242.6719 Z "/><text fill="#000000" font-family="sans-serif" font-size="12" lengthAdjust="spacingAndGlyphs" textLength="36" x="827.75" y="251.1543">Game</text><line style="stroke: #A80036; stroke-width: 1.5;" x1="566" x2="1093" y1="263" y2="263"/><line style="stroke: #A80036; stroke-width: 1.5;" x1="566" x2="1093" y1="271" y2="271"/><text fill="#000000" font-family="sans-serif" font-size="11" lengthAdjust="spacingAndGlyphs" textLength="517" x="571" y="285.2104">Game(std::vector&lt;std::shared_ptr&lt;Shape&lt;double&gt;&gt;&gt;, std::unique_ptr&lt;Piece&lt;double&gt;&gt;)</text><text fill="#000000" font-family="sans-serif" font-size="11" lengthAdjust="spacingAndGlyphs" textLength="42" x="571" y="298.0151">Game()</text><text fill="#000000" font-family="sans-serif" font-size="11" lengthAdjust="spacingAndGlyphs" textLength="282" x="571" y="310.8198">static init(const char *) : std::shared_ptr&lt;Game&gt;</text><text fill="#000000" font-family="sans-serif" font-size="11" lengthAdjust="spacingAndGlyphs" textLength="186" x="571" y="323.6245">draw(sf::RenderWindow &amp;) : void</text><text fill="#000000" font-family="sans-serif" font-size="11" lengthAdjust="spacingAndGlyphs" textLength="210" x="571" y="336.4292">select(const Point&lt;double&gt; &amp;) : void</text><text fill="#000000" font-family="sans-serif" font-size="11" lengthAdjust="spacingAndGlyphs" textLength="91" x="571" y="349.2339">deselect() : void</text><text fill="#000000" font-family="sans-serif" font-size="11" lengthAdjust="spacingAndGlyphs" textLength="265" x="571" y="362.0386">centralizeSelected(const Point&lt;double&gt;) : void</text><text fill="#000000" font-family="sans-serif" font-size="11" lengthAdjust="spacingAndGlyphs" textLength="199" x="571" y="374.8433">rotateSelected(const double) : void</text><text fill="#000000" font-family="sans-serif" font-size="11" lengthAdjust="spacingAndGlyphs" textLength="129" x="571" y="387.6479">save(std::string) : void</text><text fill="#000000" font-family="sans-serif" font-size="11" lengthAdjust="spacingAndGlyphs" textLength="101" x="571" y="400.4526">magnetize() : void</text><text fill="#000000" font-family="sans-serif" font-size="11" lengthAdjust="spacingAndGlyphs" textLength="123" x="571" y="413.2573">validateShape() : void</text><text fill="#000000" font-family="sans-serif" font-size="11" lengthAdjust="spacingAndGlyphs" textLength="126" x="571" y="426.062">getGameState() : bool</text><!--MD5=[b97315c778fe427d63b1788bb7ae118a]
class GameBuilder--><rect fill="#FEFECE" filter="url(#f16o839t3fwmhp)" height="86.4141" id="GameBuilder" style="stroke: #A80036; stroke-width: 1.5;" width="312" x="828.5" y="538"/><ellipse cx="940.75" cy="554" fill="#ADD1B2" rx="11" ry="11" style="stroke: #A80036; stroke-width: 1.0;"/><path d="M943.0938,549.6719 L943.2656,549.75 C943.4844,549.4375 943.6875,549.3438 943.9844,549.3438 C944.2813,549.3438 944.5625,549.4844 944.7188,549.75 C944.8125,549.9063 944.8281,550.0313 944.8281,550.4688 L944.8281,551.8906 C944.8281,552.3125 944.7969,552.5 944.6875,552.6563 C944.5156,552.875 944.25,553.0156 943.9844,553.0156 C943.7656,553.0156 943.5313,552.9063 943.3906,552.7656 C943.25,552.6406 943.2188,552.5156 943.1563,552.1094 C943.0625,551.7031 942.8906,551.4844 942.4063,551.2031 C941.9375,550.9531 941.3281,550.7969 940.75,550.7969 C939.0156,550.7969 937.7656,552.1094 937.7656,553.8906 L937.7656,554.9844 C937.7656,556.6875 939.0625,557.7813 941.1094,557.7813 C941.875,557.7813 942.5625,557.6563 942.9844,557.3906 C943.1719,557.2969 943.1719,557.2969 943.625,556.8125 C943.8125,556.625 944.0156,556.5469 944.2344,556.5469 C944.7031,556.5469 945.0938,556.9375 945.0938,557.3906 C945.0938,557.7813 944.7656,558.2344 944.1875,558.6406 C943.4375,559.1875 942.2813,559.4844 941.0625,559.4844 C938.1719,559.4844 936.0625,557.5938 936.0625,555.0156 L936.0625,553.8906 C936.0625,551.1719 938.0625,549.0938 940.6875,549.0938 C941.5625,549.0938 942.1563,549.2344 943.0938,549.6719 Z "/><text fill="#000000" font-family="sans-serif" font-size="12" lengthAdjust="spacingAndGlyphs" textLength="79" x="961.25" y="558.1543">GameBuilder</text><line style="stroke: #A80036; stroke-width: 1.5;" x1="829.5" x2="1139.5" y1="570" y2="570"/><line style="stroke: #A80036; stroke-width: 1.5;" x1="829.5" x2="1139.5" y1="578" y2="578"/><text fill="#000000" font-family="sans-serif" font-size="11" lengthAdjust="spacingAndGlyphs" textLength="82" x="834.5" y="592.2104">GameBuilder()</text><text fill="#000000" font-family="sans-serif" font-size="11" lengthAdjust="spacingAndGlyphs" textLength="300" x="834.5" y="605.0151">withShape(std::shared_ptr&lt;Shape&lt;double&gt;&gt;) : void</text><text fill="#000000" font-family="sans-serif" font-size="11" lengthAdjust="spacingAndGlyphs" textLength="257" x="834.5" y="617.8198">build(const char *) : std::shared_ptr&lt;Game&gt;</text><!--MD5=[ebecb9917226677787fac7e9a2731304]
class GameManager--><rect fill="#FEFECE" filter="url(#f16o839t3fwmhp)" height="176.0469" id="GameManager" style="stroke: #A80036; stroke-width: 1.5;" width="191" x="565" y="493"/><ellipse cx="610.75" cy="509" fill="#ADD1B2" rx="11" ry="11" style="stroke: #A80036; stroke-width: 1.0;"/><path d="M613.0938,504.6719 L613.2656,504.75 C613.4844,504.4375 613.6875,504.3438 613.9844,504.3438 C614.2813,504.3438 614.5625,504.4844 614.7188,504.75 C614.8125,504.9063 614.8281,505.0313 614.8281,505.4688 L614.8281,506.8906 C614.8281,507.3125 614.7969,507.5 614.6875,507.6563 C614.5156,507.875 614.25,508.0156 613.9844,508.0156 C613.7656,508.0156 613.5313,507.9063 613.3906,507.7656 C613.25,507.6406 613.2188,507.5156 613.1563,507.1094 C613.0625,506.7031 612.8906,506.4844 612.4063,506.2031 C611.9375,505.9531 611.3281,505.7969 610.75,505.7969 C609.0156,505.7969 607.7656,507.1094 607.7656,508.8906 L607.7656,509.9844 C607.7656,511.6875 609.0625,512.7813 611.1094,512.7813 C611.875,512.7813 612.5625,512.6563 612.9844,512.3906 C613.1719,512.2969 613.1719,512.2969 613.625,511.8125 C613.8125,511.625 614.0156,511.5469 614.2344,511.5469 C614.7031,511.5469 615.0938,511.9375 615.0938,512.3906 C615.0938,512.7813 614.7656,513.2344 614.1875,513.6406 C613.4375,514.1875 612.2813,514.4844 611.0625,514.4844 C608.1719,514.4844 606.0625,512.5938 606.0625,510.0156 L606.0625,508.8906 C606.0625,506.1719 608.0625,504.0938 610.6875,504.0938 C611.5625,504.0938 612.1563,504.2344 613.0938,504.6719 Z "/><text fill="#000000" font-family="sans-serif" font-size="12" lengthAdjust="spacingAndGlyphs" textLength="91" x="631.25" y="513.1543">GameManager</text><line style="stroke: #A80036; stroke-width: 1.5;" x1="566" x2="755" y1="525" y2="525"/><line style="stroke: #A80036; stroke-width: 1.5;" x1="566" x2="755" y1="533" y2="533"/><text fill="#000000" font-family="sans-serif" font-size="11" lengthAdjust="spacingAndGlyphs" textLength="99" x="571" y="547.2104">GameManager() :</text><text fill="#000000" font-family="sans-serif" font-size="11" lengthAdjust="spacingAndGlyphs" textLength="106" x="571" y="560.0151">draw() const : void</text><text fill="#000000" font-family="sans-serif" font-size="11" lengthAdjust="spacingAndGlyphs" textLength="66" x="571" y="572.8198">play() : void</text><text fill="#000000" font-family="sans-serif" font-size="11" lengthAdjust="spacingAndGlyphs" textLength="99" x="571" y="585.6245">isRunning() : bool</text><text fill="#000000" font-family="sans-serif" font-size="11" lengthAdjust="spacingAndGlyphs" textLength="164" x="571" y="598.4292">initMainGameButtons() : void</text><text fill="#000000" font-family="sans-serif" font-size="11" lengthAdjust="spacingAndGlyphs" textLength="160" x="571" y="611.2339">initMainMenuButtons() : void</text><text fill="#000000" font-family="sans-serif" font-size="11" lengthAdjust="spacingAndGlyphs" textLength="171" x="571" y="624.0386">initCreateLevelButtons() : void</text><text fill="#000000" font-family="sans-serif" font-size="11" lengthAdjust="spacingAndGlyphs" textLength="179" x="571" y="636.8433">initLoadGameButtons(int) : void</text><text fill="#000000" font-family="sans-serif" font-size="11" lengthAdjust="spacingAndGlyphs" textLength="159" x="571" y="649.6479">initSaveGameButton() : void</text><text fill="#000000" font-family="sans-serif" font-size="11" lengthAdjust="spacingAndGlyphs" textLength="163" x="571" y="662.4526">initWinScreenButtons() : void</text><!--MD5=[f901387b96077c5852b67344158f3ed3]
class Preferences--><rect fill="#FEFECE" filter="url(#f16o839t3fwmhp)" height="163.2422" id="Preferences" style="stroke: #A80036; stroke-width: 1.5;" width="225" x="614" y="729"/><ellipse cx="684.25" cy="745" fill="#ADD1B2" rx="11" ry="11" style="stroke: #A80036; stroke-width: 1.0;"/><path d="M686.5938,740.6719 L686.7656,740.75 C686.9844,740.4375 687.1875,740.3438 687.4844,740.3438 C687.7813,740.3438 688.0625,740.4844 688.2188,740.75 C688.3125,740.9063 688.3281,741.0313 688.3281,741.4688 L688.3281,742.8906 C688.3281,743.3125 688.2969,743.5 688.1875,743.6563 C688.0156,743.875 687.75,744.0156 687.4844,744.0156 C687.2656,744.0156 687.0313,743.9063 686.8906,743.7656 C686.75,743.6406 686.7188,743.5156 686.6563,743.1094 C686.5625,742.7031 686.3906,742.4844 685.9063,742.2031 C685.4375,741.9531 684.8281,741.7969 684.25,741.7969 C682.5156,741.7969 681.2656,743.1094 681.2656,744.8906 L681.2656,745.9844 C681.2656,747.6875 682.5625,748.7813 684.6094,748.7813 C685.375,748.7813 686.0625,748.6563 686.4844,748.3906 C686.6719,748.2969 686.6719,748.2969 687.125,747.8125 C687.3125,747.625 687.5156,747.5469 687.7344,747.5469 C688.2031,747.5469 688.5938,747.9375 688.5938,748.3906 C688.5938,748.7813 688.2656,749.2344 687.6875,749.6406 C686.9375,750.1875 685.7813,750.4844 684.5625,750.4844 C681.6719,750.4844 679.5625,748.5938 679.5625,746.0156 L679.5625,744.8906 C679.5625,742.1719 681.5625,740.0938 684.1875,740.0938 C685.0625,740.0938 685.6563,740.2344 686.5938,740.6719 Z "/><text fill="#000000" font-family="sans-serif" font-size="12" lengthAdjust="spacingAndGlyphs" textLength="76" x="704.75" y="749.1543">Preferences</text><line style="stroke: #A80036; stroke-width: 1.5;" x1="615" x2="838" y1="761" y2="761"/><line style="stroke: #A80036; stroke-width: 1.5;" x1="615" x2="838" y1="769" y2="769"/><text fill="#000000" font-family="sans-serif" font-size="11" lengthAdjust="spacingAndGlyphs" textLength="200" x="620" y="783.2104">static getInstance() : Preferences *</text><text fill="#000000" font-family="sans-serif" font-size="11" lengthAdjust="spacingAndGlyphs" textLength="161" x="620" y="796.0151">setMagnetism(double) : void</text><text fill="#000000" font-family="sans-serif" font-size="11" lengthAdjust="spacingAndGlyphs" textLength="213" x="620" y="808.8198">setRotationPerSpinning(double) : void</text><text fill="#000000" font-family="sans-serif" font-size="11" lengthAdjust="spacingAndGlyphs" textLength="212" x="620" y="821.6245">setTolerance(double tolerance) : void</text><text fill="#000000" font-family="sans-serif" font-size="11" lengthAdjust="spacingAndGlyphs" textLength="206" x="620" y="834.4292">setGameButtonHeight(double) : void</text><text fill="#000000" font-family="sans-serif" font-size="11" lengthAdjust="spacingAndGlyphs" textLength="138" x="620" y="847.2339">getMagnetism() : double</text><text fill="#000000" font-family="sans-serif" font-size="11" lengthAdjust="spacingAndGlyphs" textLength="190" x="620" y="860.0386">getRotationPerSpinning() : double</text><text fill="#000000" font-family="sans-serif" font-size="11" lengthAdjust="spacingAndGlyphs" textLength="132" x="620" y="872.8433">getTolerance() : double</text><text fill="#000000" font-family="sans-serif" font-size="11" lengthAdjust="spacingAndGlyphs" textLength="183" x="620" y="885.6479">getGameButtonHeight() : double</text><!--MD5=[426e75666daf533f17226ff4c87e20fd]
class Shape--><rect fill="#FEFECE" filter="url(#f16o839t3fwmhp)" height="176.0469" id="Shape" style="stroke: #A80036; stroke-width: 1.5;" width="529" x="1490" y="493"/><ellipse cx="1678.75" cy="509" fill="#B4A7E5" rx="11" ry="11" style="stroke: #A80036; stroke-width: 1.0;"/><path d="M1679.7031,505.7813 L1679.7031,512.2969 L1681.4219,512.2969 C1681.875,512.2969 1682.0156,512.3281 1682.1875,512.4531 C1682.4219,512.625 1682.5313,512.875 1682.5313,513.1563 C1682.5313,513.7188 1682.1719,514 1681.4219,514 L1676.2813,514 C1675.875,514 1675.6719,513.9531 1675.5156,513.8281 C1675.2969,513.6719 1675.1563,513.4063 1675.1563,513.1563 C1675.1563,512.8594 1675.3125,512.5781 1675.5625,512.4219 C1675.7188,512.3125 1675.8438,512.2969 1676.2813,512.2969 L1678,512.2969 L1678,505.7813 L1676.2813,505.7813 C1675.8594,505.7813 1675.6719,505.75 1675.5156,505.6406 C1675.2969,505.4688 1675.1563,505.2188 1675.1563,504.9375 C1675.1563,504.6563 1675.3125,504.3594 1675.5625,504.2031 C1675.7188,504.1094 1675.8438,504.0938 1676.2813,504.0938 L1681.4219,504.0938 C1681.875,504.0938 1682.0156,504.125 1682.1875,504.2344 C1682.4219,504.4063 1682.5313,504.6719 1682.5313,504.9375 C1682.5313,505.2344 1682.3906,505.5156 1682.125,505.6719 C1682,505.75 1681.8125,505.7813 1681.4219,505.7813 Z "/><text fill="#000000" font-family="sans-serif" font-size="12" font-style="italic" lengthAdjust="spacingAndGlyphs" textLength="40" x="1699.25" y="513.1543">Shape</text><rect fill="#FFFFFF" height="15.9688" style="stroke: #000000; stroke-width: 1.0; stroke-dasharray: 2.0,2.0;" width="101" x="1921" y="490"/><text fill="#000000" font-family="sans-serif" font-size="12" font-style="italic" lengthAdjust="spacingAndGlyphs" textLength="99" x="1922" y="502.1387">CoordinateType</text><line style="stroke: #A80036; stroke-width: 1.5;" x1="1491" x2="2018" y1="525" y2="525"/><line style="stroke: #A80036; stroke-width: 1.5;" x1="1491" x2="2018" y1="533" y2="533"/><text fill="#000000" font-family="sans-serif" font-size="11" lengthAdjust="spacingAndGlyphs" textLength="191" x="1496" y="547.2104">center() : Point&lt;CoordinateType&gt;</text><text fill="#000000" font-family="sans-serif" font-size="11" lengthAdjust="spacingAndGlyphs" textLength="517" x="1496" y="560.0151">centralizeRelative(const Point&lt;CoordinateType&gt; &amp;, const Point&lt;CoordinateType&gt; &amp;) : void</text><text fill="#000000" font-family="sans-serif" font-size="11" lengthAdjust="spacingAndGlyphs" textLength="307" x="1496" y="572.8198">rotate(const Point&lt;CoordinateType&gt; &amp;, double) : void</text><text fill="#000000" font-family="sans-serif" font-size="11" lengthAdjust="spacingAndGlyphs" textLength="278" x="1496" y="585.6245">isClicked(const Point&lt;CoordinateType&gt; &amp;) : bool</text><text fill="#000000" font-family="sans-serif" font-size="11" lengthAdjust="spacingAndGlyphs" textLength="287" x="1496" y="598.4292">getPoints() : std::vector&lt;Point&lt;CoordinateType&gt;&gt;</text><text fill="#000000" font-family="sans-serif" font-size="11" lengthAdjust="spacingAndGlyphs" textLength="444" x="1496" y="611.2339">distance(Shape&lt;CoordinateType&gt; *, std::vector&lt;Point&lt;double&gt;&gt; &amp;) : double</text><text fill="#000000" font-family="sans-serif" font-size="11" lengthAdjust="spacingAndGlyphs" textLength="278" x="1496" y="624.0386">translate(const Point&lt;CoordinateType&gt; &amp;) : void</text><text fill="#000000" font-family="sans-serif" font-size="11" lengthAdjust="spacingAndGlyphs" textLength="278" x="1496" y="636.8433">isInsideWindow(Point&lt;CoordinateType&gt; &amp;) : void</text><text fill="#000000" font-family="sans-serif" font-size="11" lengthAdjust="spacingAndGlyphs" textLength="119" x="1496" y="649.6479">reduceSize(int) : void</text><text fill="#000000" font-family="sans-serif" font-size="11" lengthAdjust="spacingAndGlyphs" textLength="137" x="1496" y="662.4526">rotate(const float) : void</text><!--MD5=[e05bacf3ff4416a0580578814d41bbf6]
class Piece--><rect fill="#FEFECE" filter="url(#f16o839t3fwmhp)" height="86.4141" id="Piece" style="stroke: #A80036; stroke-width: 1.5;" width="444" x="1347.5" y="767.5"/><ellipse cx="1496.75" cy="783.5" fill="#ADD1B2" rx="11" ry="11" style="stroke: #A80036; stroke-width: 1.0;"/><path d="M1499.0938,779.1719 L1499.2656,779.25 C1499.4844,778.9375 1499.6875,778.8438 1499.9844,778.8438 C1500.2813,778.8438 1500.5625,778.9844 1500.7188,779.25 C1500.8125,779.4063 1500.8281,779.5313 1500.8281,779.9688 L1500.8281,781.3906 C1500.8281,781.8125 1500.7969,782 1500.6875,782.1563 C1500.5156,782.375 1500.25,782.5156 1499.9844,782.5156 C1499.7656,782.5156 1499.5313,782.4063 1499.3906,782.2656 C1499.25,782.1406 1499.2188,782.0156 1499.1563,781.6094 C1499.0625,781.2031 1498.8906,780.9844 1498.4063,780.7031 C1497.9375,780.4531 1497.3281,780.2969 1496.75,780.2969 C1495.0156,780.2969 1493.7656,781.6094 1493.7656,783.3906 L1493.7656,784.4844 C1493.7656,786.1875 1495.0625,787.2813 1497.1094,787.2813 C1497.875,787.2813 1498.5625,787.1563 1498.9844,786.8906 C1499.1719,786.7969 1499.1719,786.7969 1499.625,786.3125 C1499.8125,786.125 1500.0156,786.0469 1500.2344,786.0469 C1500.7031,786.0469 1501.0938,786.4375 1501.0938,786.8906 C1501.0938,787.2813 1500.7656,787.7344 1500.1875,788.1406 C1499.4375,788.6875 1498.2813,788.9844 1497.0625,788.9844 C1494.1719,788.9844 1492.0625,787.0938 1492.0625,784.5156 L1492.0625,783.3906 C1492.0625,780.6719 1494.0625,778.5938 1496.6875,778.5938 C1497.5625,778.5938 1498.1563,778.7344 1499.0938,779.1719 Z "/><text fill="#000000" font-family="sans-serif" font-size="12" lengthAdjust="spacingAndGlyphs" textLength="34" x="1517.25" y="787.6543">Piece</text><rect fill="#FFFFFF" height="15.9688" style="stroke: #000000; stroke-width: 1.0; stroke-dasharray: 2.0,2.0;" width="101" x="1693.5" y="764.5"/><text fill="#000000" font-family="sans-serif" font-size="12" font-style="italic" lengthAdjust="spacingAndGlyphs" textLength="99" x="1694.5" y="776.6387">CoordinateType</text><line style="stroke: #A80036; stroke-width: 1.5;" x1="1348.5" x2="1790.5" y1="799.5" y2="799.5"/><line style="stroke: #A80036; stroke-width: 1.5;" x1="1348.5" x2="1790.5" y1="807.5" y2="807.5"/><text fill="#000000" font-family="sans-serif" font-size="11" lengthAdjust="spacingAndGlyphs" textLength="251" x="1353.5" y="821.7104">Piece(int, sf::Color, const CoordinateType *)</text><text fill="#000000" font-family="sans-serif" font-size="11" lengthAdjust="spacingAndGlyphs" textLength="309" x="1353.5" y="834.5151">Piece(sf::Color, std::vector&lt;Point&lt;CoordinateType&gt;&gt;)</text><text fill="#000000" font-family="sans-serif" font-size="11" lengthAdjust="spacingAndGlyphs" textLength="432" x="1353.5" y="847.3198">static createPiece(const char *) : std::unique_ptr&lt;Piece&lt;CoordinateType&gt;&gt;</text><!--MD5=[972bde5337b4335dd91fa5354c932445]
class Point--><rect fill="#FEFECE" filter="url(#f16o839t3fwmhp)" height="201.6563" id="Point" style="stroke: #A80036; stroke-width: 1.5;" width="428" x="1469.5" y="1086"/><ellipse cx="1611.75" cy="1102" fill="#ADD1B2" rx="11" ry="11" style="stroke: #A80036; stroke-width: 1.0;"/><path d="M1614.0938,1097.6719 L1614.2656,1097.75 C1614.4844,1097.4375 1614.6875,1097.3438 1614.9844,1097.3438 C1615.2813,1097.3438 1615.5625,1097.4844 1615.7188,1097.75 C1615.8125,1097.9063 1615.8281,1098.0313 1615.8281,1098.4688 L1615.8281,1099.8906 C1615.8281,1100.3125 1615.7969,1100.5 1615.6875,1100.6563 C1615.5156,1100.875 1615.25,1101.0156 1614.9844,1101.0156 C1614.7656,1101.0156 1614.5313,1100.9063 1614.3906,1100.7656 C1614.25,1100.6406 1614.2188,1100.5156 1614.1563,1100.1094 C1614.0625,1099.7031 1613.8906,1099.4844 1613.4063,1099.2031 C1612.9375,1098.9531 1612.3281,1098.7969 1611.75,1098.7969 C1610.0156,1098.7969 1608.7656,1100.1094 1608.7656,1101.8906 L1608.7656,1102.9844 C1608.7656,1104.6875 1610.0625,1105.7813 1612.1094,1105.7813 C1612.875,1105.7813 1613.5625,1105.6563 1613.9844,1105.3906 C1614.1719,1105.2969 1614.1719,1105.2969 1614.625,1104.8125 C1614.8125,1104.625 1615.0156,1104.5469 1615.2344,1104.5469 C1615.7031,1104.5469 1616.0938,1104.9375 1616.0938,1105.3906 C1616.0938,1105.7813 1615.7656,1106.2344 1615.1875,1106.6406 C1614.4375,1107.1875 1613.2813,1107.4844 1612.0625,1107.4844 C1609.1719,1107.4844 1607.0625,1105.5938 1607.0625,1103.0156 L1607.0625,1101.8906 C1607.0625,1099.1719 1609.0625,1097.0938 1611.6875,1097.0938 C1612.5625,1097.0938 1613.1563,1097.2344 1614.0938,1097.6719 Z "/><text fill="#000000" font-family="sans-serif" font-size="12" lengthAdjust="spacingAndGlyphs" textLength="32" x="1632.25" y="1106.1543">Point</text><rect fill="#FFFFFF" height="15.9688" style="stroke: #000000; stroke-width: 1.0; stroke-dasharray: 2.0,2.0;" width="101" x="1799.5" y="1083"/><text fill="#000000" font-family="sans-serif" font-size="12" font-style="italic" lengthAdjust="spacingAndGlyphs" textLength="99" x="1800.5" y="1095.1387">CoordinateType</text><line style="stroke: #A80036; stroke-width: 1.5;" x1="1470.5" x2="1896.5" y1="1118" y2="1118"/><line style="stroke: #A80036; stroke-width: 1.5;" x1="1470.5" x2="1896.5" y1="1126" y2="1126"/><text fill="#000000" font-family="sans-serif" font-size="11" lengthAdjust="spacingAndGlyphs" textLength="222" x="1475.5" y="1140.2104">Point(CoordinateType, CoordinateType)</text><text fill="#000000" font-family="sans-serif" font-size="11" lengthAdjust="spacingAndGlyphs" textLength="199" x="1475.5" y="1153.0151">Point(sf::Event::MouseButtonEvent)</text><text fill="#000000" font-family="sans-serif" font-size="11" lengthAdjust="spacingAndGlyphs" textLength="191" x="1475.5" y="1165.8198">Point(sf::Event::MouseMoveEvent)</text><text fill="#000000" font-family="sans-serif" font-size="11" lengthAdjust="spacingAndGlyphs" textLength="134" x="1475.5" y="1178.6245">getX() : CoordinateType</text><text fill="#000000" font-family="sans-serif" font-size="11" lengthAdjust="spacingAndGlyphs" textLength="134" x="1475.5" y="1191.4292">getY() : CoordinateType</text><text fill="#000000" font-family="sans-serif" font-size="11" lengthAdjust="spacingAndGlyphs" textLength="295" x="1475.5" y="1204.2339">operator==(const Point&lt;CoordinateType&gt; &amp;) : bool</text><text fill="#000000" font-family="sans-serif" font-size="11" lengthAdjust="spacingAndGlyphs" textLength="289" x="1475.5" y="1217.0386">operator!=(const Point&lt;CoordinateType&gt; &amp;) : bool</text><text fill="#000000" font-family="sans-serif" font-size="11" lengthAdjust="spacingAndGlyphs" textLength="290" x="1475.5" y="1229.8433">operator+(const Point &amp;) : Point&lt;CoordinateType&gt;</text><text fill="#000000" font-family="sans-serif" font-size="11" lengthAdjust="spacingAndGlyphs" textLength="285" x="1475.5" y="1242.6479">operator-(const Point &amp;) : Point&lt;CoordinateType&gt;</text><text fill="#000000" font-family="sans-serif" font-size="11" lengthAdjust="spacingAndGlyphs" textLength="346" x="1475.5" y="1255.4526">operator/(const CoordinateType &amp;) : Point&lt;CoordinateType&gt;</text><text fill="#000000" font-family="sans-serif" font-size="11" lengthAdjust="spacingAndGlyphs" textLength="416" x="1475.5" y="1268.2573">operator+=(const Point&lt;CoordinateType&gt; &amp;) : Point&lt;CoordinateType&gt;&amp;</text><text fill="#000000" font-family="sans-serif" font-size="11" lengthAdjust="spacingAndGlyphs" textLength="286" x="1475.5" y="1281.062">operator&lt;(const Point&lt;CoordinateType&gt; &amp;) : bool</text><!--MD5=[40b067e448d061f8c1f714bff454de58]
class Triangle--><rect fill="#FEFECE" filter="url(#f16o839t3fwmhp)" height="73.6094" id="Triangle" style="stroke: #A80036; stroke-width: 1.5;" width="598" x="1384.5" y="952"/><ellipse cx="1602.75" cy="968" fill="#ADD1B2" rx="11" ry="11" style="stroke: #A80036; stroke-width: 1.0;"/><path d="M1605.0938,963.6719 L1605.2656,963.75 C1605.4844,963.4375 1605.6875,963.3438 1605.9844,963.3438 C1606.2813,963.3438 1606.5625,963.4844 1606.7188,963.75 C1606.8125,963.9063 1606.8281,964.0313 1606.8281,964.4688 L1606.8281,965.8906 C1606.8281,966.3125 1606.7969,966.5 1606.6875,966.6563 C1606.5156,966.875 1606.25,967.0156 1605.9844,967.0156 C1605.7656,967.0156 1605.5313,966.9063 1605.3906,966.7656 C1605.25,966.6406 1605.2188,966.5156 1605.1563,966.1094 C1605.0625,965.7031 1604.8906,965.4844 1604.4063,965.2031 C1603.9375,964.9531 1603.3281,964.7969 1602.75,964.7969 C1601.0156,964.7969 1599.7656,966.1094 1599.7656,967.8906 L1599.7656,968.9844 C1599.7656,970.6875 1601.0625,971.7813 1603.1094,971.7813 C1603.875,971.7813 1604.5625,971.6563 1604.9844,971.3906 C1605.1719,971.2969 1605.1719,971.2969 1605.625,970.8125 C1605.8125,970.625 1606.0156,970.5469 1606.2344,970.5469 C1606.7031,970.5469 1607.0938,970.9375 1607.0938,971.3906 C1607.0938,971.7813 1606.7656,972.2344 1606.1875,972.6406 C1605.4375,973.1875 1604.2813,973.4844 1603.0625,973.4844 C1600.1719,973.4844 1598.0625,971.5938 1598.0625,969.0156 L1598.0625,967.8906 C1598.0625,965.1719 1600.0625,963.0938 1602.6875,963.0938 C1603.5625,963.0938 1604.1563,963.2344 1605.0938,963.6719 Z "/><text fill="#000000" font-family="sans-serif" font-size="12" lengthAdjust="spacingAndGlyphs" textLength="50" x="1623.25" y="972.1543">Triangle</text><rect fill="#FFFFFF" height="15.9688" style="stroke: #000000; stroke-width: 1.0; stroke-dasharray: 2.0,2.0;" width="101" x="1884.5" y="949"/><text fill="#000000" font-family="sans-serif" font-size="12" font-style="italic" lengthAdjust="spacingAndGlyphs" textLength="99" x="1885.5" y="961.1387">CoordinateType</text><line style="stroke: #A80036; stroke-width: 1.5;" x1="1385.5" x2="1981.5" y1="984" y2="984"/><line style="stroke: #A80036; stroke-width: 1.5;" x1="1385.5" x2="1981.5" y1="992" y2="992"/><text fill="#000000" font-family="sans-serif" font-size="11" lengthAdjust="spacingAndGlyphs" textLength="532" x="1390.5" y="1006.2104">Triangle(Point&lt;CoordinateType&gt;, Point&lt;CoordinateType&gt;, Point&lt;CoordinateType&gt;, sf::Color)</text><text fill="#000000" font-family="sans-serif" font-size="11" lengthAdjust="spacingAndGlyphs" textLength="586" x="1390.5" y="1019.0151">std::vector&lt;CoordinateType&gt; calculateBarycentricCoordinates(const Point&lt;CoordinateType&gt; &amp;) const;</text><!--MD5=[630deb9ca358f01922be9b487b80131a]
class Drawable--><rect fill="#FEFECE" filter="url(#f16o839t3fwmhp)" height="60.8047" id="Drawable" style="stroke: #A80036; stroke-width: 1.5;" width="198" x="2075.5" y="301.5"/><ellipse cx="2140.75" cy="317.5" fill="#B4A7E5" rx="11" ry="11" style="stroke: #A80036; stroke-width: 1.0;"/><path d="M2141.7031,314.2813 L2141.7031,320.7969 L2143.4219,320.7969 C2143.875,320.7969 2144.0156,320.8281 2144.1875,320.9531 C2144.4219,321.125 2144.5313,321.375 2144.5313,321.6563 C2144.5313,322.2188 2144.1719,322.5 2143.4219,322.5 L2138.2813,322.5 C2137.875,322.5 2137.6719,322.4531 2137.5156,322.3281 C2137.2969,322.1719 2137.1563,321.9063 2137.1563,321.6563 C2137.1563,321.3594 2137.3125,321.0781 2137.5625,320.9219 C2137.7188,320.8125 2137.8438,320.7969 2138.2813,320.7969 L2140,320.7969 L2140,314.2813 L2138.2813,314.2813 C2137.8594,314.2813 2137.6719,314.25 2137.5156,314.1406 C2137.2969,313.9688 2137.1563,313.7188 2137.1563,313.4375 C2137.1563,313.1563 2137.3125,312.8594 2137.5625,312.7031 C2137.7188,312.6094 2137.8438,312.5938 2138.2813,312.5938 L2143.4219,312.5938 C2143.875,312.5938 2144.0156,312.625 2144.1875,312.7344 C2144.4219,312.9063 2144.5313,313.1719 2144.5313,313.4375 C2144.5313,313.7344 2144.3906,314.0156 2144.125,314.1719 C2144,314.25 2143.8125,314.2813 2143.4219,314.2813 Z "/><text fill="#000000" font-family="sans-serif" font-size="12" font-style="italic" lengthAdjust="spacingAndGlyphs" textLength="59" x="2161.25" y="321.6543">Drawable</text><line style="stroke: #A80036; stroke-width: 1.5;" x1="2076.5" x2="2272.5" y1="333.5" y2="333.5"/><line style="stroke: #A80036; stroke-width: 1.5;" x1="2076.5" x2="2272.5" y1="341.5" y2="341.5"/><text fill="#000000" font-family="sans-serif" font-size="11" lengthAdjust="spacingAndGlyphs" textLength="186" x="2081.5" y="355.7104">draw(sf::RenderWindow &amp;) : void</text><!--MD5=[90ba54f54370e77ef24813dec6818fa3]
class Button--><rect fill="#FEFECE" filter="url(#f16o839t3fwmhp)" height="112.0234" id="Button" style="stroke: #A80036; stroke-width: 1.5;" width="332" x="2101.5" y="754.5"/><ellipse cx="2242.25" cy="770.5" fill="#ADD1B2" rx="11" ry="11" style="stroke: #A80036; stroke-width: 1.0;"/><path d="M2244.5938,766.1719 L2244.7656,766.25 C2244.9844,765.9375 2245.1875,765.8438 2245.4844,765.8438 C2245.7813,765.8438 2246.0625,765.9844 2246.2188,766.25 C2246.3125,766.4063 2246.3281,766.5313 2246.3281,766.9688 L2246.3281,768.3906 C2246.3281,768.8125 2246.2969,769 2246.1875,769.1563 C2246.0156,769.375 2245.75,769.5156 2245.4844,769.5156 C2245.2656,769.5156 2245.0313,769.4063 2244.8906,769.2656 C2244.75,769.1406 2244.7188,769.0156 2244.6563,768.6094 C2244.5625,768.2031 2244.3906,767.9844 2243.9063,767.7031 C2243.4375,767.4531 2242.8281,767.2969 2242.25,767.2969 C2240.5156,767.2969 2239.2656,768.6094 2239.2656,770.3906 L2239.2656,771.4844 C2239.2656,773.1875 2240.5625,774.2813 2242.6094,774.2813 C2243.375,774.2813 2244.0625,774.1563 2244.4844,773.8906 C2244.6719,773.7969 2244.6719,773.7969 2245.125,773.3125 C2245.3125,773.125 2245.5156,773.0469 2245.7344,773.0469 C2246.2031,773.0469 2246.5938,773.4375 2246.5938,773.8906 C2246.5938,774.2813 2246.2656,774.7344 2245.6875,775.1406 C2244.9375,775.6875 2243.7813,775.9844 2242.5625,775.9844 C2239.6719,775.9844 2237.5625,774.0938 2237.5625,771.5156 L2237.5625,770.3906 C2237.5625,767.6719 2239.5625,765.5938 2242.1875,765.5938 C2243.0625,765.5938 2243.6563,765.7344 2244.5938,766.1719 Z "/><text fill="#000000" font-family="sans-serif" font-size="12" lengthAdjust="spacingAndGlyphs" textLength="42" x="2262.75" y="774.6543">Button</text><line style="stroke: #A80036; stroke-width: 1.5;" x1="2102.5" x2="2432.5" y1="786.5" y2="786.5"/><line style="stroke: #A80036; stroke-width: 1.5;" x1="2102.5" x2="2432.5" y1="794.5" y2="794.5"/><text fill="#000000" font-family="sans-serif" font-size="11" lengthAdjust="spacingAndGlyphs" textLength="320" x="2107.5" y="808.7104">Button(int, int, int, int, std::string, std::function&lt;void()&gt;)</text><text fill="#000000" font-family="sans-serif" font-size="11" lengthAdjust="spacingAndGlyphs" textLength="74" x="2107.5" y="821.5151">void callFct();</text><text fill="#000000" font-family="sans-serif" font-size="11" lengthAdjust="spacingAndGlyphs" textLength="171" x="2107.5" y="834.3198">Point&lt;double&gt; center() const;</text><text fill="#000000" font-family="sans-serif" font-size="11" lengthAdjust="spacingAndGlyphs" textLength="138" x="2107.5" y="847.1245">void setText(char input);</text><text fill="#000000" font-family="sans-serif" font-size="11" lengthAdjust="spacingAndGlyphs" textLength="145" x="2107.5" y="859.9292">std::string getInputText();</text><!--MD5=[f0268dd29ee89052933f031546cb1cab]
class Menu--><rect fill="#FEFECE" filter="url(#f16o839t3fwmhp)" height="163.2422" id="Menu" style="stroke: #A80036; stroke-width: 1.5;" width="361" x="2113" y="499.5"/><ellipse cx="2272.25" cy="515.5" fill="#ADD1B2" rx="11" ry="11" style="stroke: #A80036; stroke-width: 1.0;"/><path d="M2274.5938,511.1719 L2274.7656,511.25 C2274.9844,510.9375 2275.1875,510.8438 2275.4844,510.8438 C2275.7813,510.8438 2276.0625,510.9844 2276.2188,511.25 C2276.3125,511.4063 2276.3281,511.5313 2276.3281,511.9688 L2276.3281,513.3906 C2276.3281,513.8125 2276.2969,514 2276.1875,514.1563 C2276.0156,514.375 2275.75,514.5156 2275.4844,514.5156 C2275.2656,514.5156 2275.0313,514.4063 2274.8906,514.2656 C2274.75,514.1406 2274.7188,514.0156 2274.6563,513.6094 C2274.5625,513.2031 2274.3906,512.9844 2273.9063,512.7031 C2273.4375,512.4531 2272.8281,512.2969 2272.25,512.2969 C2270.5156,512.2969 2269.2656,513.6094 2269.2656,515.3906 L2269.2656,516.4844 C2269.2656,518.1875 2270.5625,519.2813 2272.6094,519.2813 C2273.375,519.2813 2274.0625,519.1563 2274.4844,518.8906 C2274.6719,518.7969 2274.6719,518.7969 2275.125,518.3125 C2275.3125,518.125 2275.5156,518.0469 2275.7344,518.0469 C2276.2031,518.0469 2276.5938,518.4375 2276.5938,518.8906 C2276.5938,519.2813 2276.2656,519.7344 2275.6875,520.1406 C2274.9375,520.6875 2273.7813,520.9844 2272.5625,520.9844 C2269.6719,520.9844 2267.5625,519.0938 2267.5625,516.5156 L2267.5625,515.3906 C2267.5625,512.6719 2269.5625,510.5938 2272.1875,510.5938 C2273.0625,510.5938 2273.6563,510.7344 2274.5938,511.1719 Z "/><text fill="#000000" font-family="sans-serif" font-size="12" lengthAdjust="spacingAndGlyphs" textLength="34" x="2292.75" y="519.6543">Menu</text><line style="stroke: #A80036; stroke-width: 1.5;" x1="2114" x2="2473" y1="531.5" y2="531.5"/><line style="stroke: #A80036; stroke-width: 1.5;" x1="2114" x2="2473" y1="539.5" y2="539.5"/><text fill="#000000" font-family="sans-serif" font-size="11" lengthAdjust="spacingAndGlyphs" textLength="38" x="2119" y="553.7104">Menu()</text><text fill="#000000" font-family="sans-serif" font-size="11" lengthAdjust="spacingAndGlyphs" textLength="204" x="2119" y="566.5151">static std::shared_ptr&lt;Menu&gt; init();</text><text fill="#000000" font-family="sans-serif" font-size="11" lengthAdjust="spacingAndGlyphs" textLength="278" x="2119" y="579.3198">void addButton(std::unique_ptr&lt;Button&gt; button);</text><text fill="#000000" font-family="sans-serif" font-size="11" lengthAdjust="spacingAndGlyphs" textLength="300" x="2119" y="592.1245">void setInputBox(std::unique_ptr&lt;Button&gt; inputBox);</text><text fill="#000000" font-family="sans-serif" font-size="11" lengthAdjust="spacingAndGlyphs" textLength="206" x="2119" y="604.9292">void select(const Point&lt;double&gt; &amp;);</text><text fill="#000000" font-family="sans-serif" font-size="11" lengthAdjust="spacingAndGlyphs" textLength="67" x="2119" y="617.7339">void clear();</text><text fill="#000000" font-family="sans-serif" font-size="11" lengthAdjust="spacingAndGlyphs" textLength="349" x="2119" y="630.5386">void addDecorationPiece(std::shared_ptr&lt;Shape&lt;double&gt;&gt;);</text><text fill="#000000" font-family="sans-serif" font-size="11" lengthAdjust="spacingAndGlyphs" textLength="106" x="2119" y="643.3433">void setText(char);</text><text fill="#000000" font-family="sans-serif" font-size="11" lengthAdjust="spacingAndGlyphs" textLength="166" x="2119" y="656.1479">std::string getInputBoxText();</text><!--MD5=[84718776d214be480e4c259efcb737fc]
class Main--><rect fill="#FEFECE" filter="url(#f16o839t3fwmhp)" height="48" id="Main" style="stroke: #A80036; stroke-width: 1.5;" width="61" x="6" y="308"/><ellipse cx="21" cy="324" fill="#ADD1B2" rx="11" ry="11" style="stroke: #A80036; stroke-width: 1.0;"/><path d="M23.3438,319.6719 L23.5156,319.75 C23.7344,319.4375 23.9375,319.3438 24.2344,319.3438 C24.5313,319.3438 24.8125,319.4844 24.9688,319.75 C25.0625,319.9063 25.0781,320.0313 25.0781,320.4688 L25.0781,321.8906 C25.0781,322.3125 25.0469,322.5 24.9375,322.6563 C24.7656,322.875 24.5,323.0156 24.2344,323.0156 C24.0156,323.0156 23.7813,322.9063 23.6406,322.7656 C23.5,322.6406 23.4688,322.5156 23.4063,322.1094 C23.3125,321.7031 23.1406,321.4844 22.6563,321.2031 C22.1875,320.9531 21.5781,320.7969 21,320.7969 C19.2656,320.7969 18.0156,322.1094 18.0156,323.8906 L18.0156,324.9844 C18.0156,326.6875 19.3125,327.7813 21.3594,327.7813 C22.125,327.7813 22.8125,327.6563 23.2344,327.3906 C23.4219,327.2969 23.4219,327.2969 23.875,326.8125 C24.0625,326.625 24.2656,326.5469 24.4844,326.5469 C24.9531,326.5469 25.3438,326.9375 25.3438,327.3906 C25.3438,327.7813 25.0156,328.2344 24.4375,328.6406 C23.6875,329.1875 22.5313,329.4844 21.3125,329.4844 C18.4219,329.4844 16.3125,327.5938 16.3125,325.0156 L16.3125,323.8906 C16.3125,321.1719 18.3125,319.0938 20.9375,319.0938 C21.8125,319.0938 22.4063,319.2344 23.3438,319.6719 Z "/><text fill="#000000" font-family="sans-serif" font-size="12" lengthAdjust="spacingAndGlyphs" textLength="29" x="35" y="328.1543">Main</text><line style="stroke: #A80036; stroke-width: 1.5;" x1="7" x2="66" y1="340" y2="340"/><line style="stroke: #A80036; stroke-width: 1.5;" x1="7" x2="66" y1="348" y2="348"/><!--MD5=[d425d5ae000c3256efb8d4a6ac5b4bfc]
reverse link Main to GameManager--><path d="M45.0795,369.062 C52.0023,390.592 63.9041,416.812 83.5,433 C222.671,547.967 440.455,574.489 564.847,579.733 " fill="none" id="Main&lt;-GameManager" style="stroke: #A80036; stroke-width: 1.0;"/><polygon fill="#A80036" points="41.3883,356.394,39.2267,363.2735,44.7456,367.9148,46.9072,361.0353,41.3883,356.394" style="stroke: #A80036; stroke-width: 1.0;"/><!--MD5=[556c4f513664b96dd9514ec50d42f798]
link Game to GameManager--><path d="M748.46,433.108 C735.653,451.354 722.745,470.306 710.88,488.293 " fill="none" id="Game-&gt;GameManager" style="stroke: #A80036; stroke-width: 1.0;"/><polygon fill="#A80036" points="707.887,492.844,716.1743,487.5224,710.6344,488.6665,709.4903,483.1265,707.887,492.844" style="stroke: #A80036; stroke-width: 1.0;"/><!--MD5=[2c13620406a0195d80b39e25f6e29515]
reverse link GameManager to Game--><path d="M740.897,481.853 C752.196,465.819 763.587,449.189 774.287,433.108 " fill="none" id="GameManager&lt;-Game" style="stroke: #A80036; stroke-width: 1.0;"/><polygon fill="#A80036" points="733.1,492.844,739.8342,490.2652,740.0439,483.0572,733.3097,485.6359,733.1,492.844" style="stroke: #A80036; stroke-width: 1.0;"/><!--MD5=[7c03d6eca39aec827a935d7871834d5b]
reverse link Clickable to Button--><path d="M1311.78,124.16 C1619.01,140.44 2254.85,179.87 2341.5,231 C2518.71,335.571 2591.1,488.949 2491.5,669 C2471.5,705.152 2437.88,733.25 2402.68,754.488 " fill="none" id="Clickable&lt;-Button" style="stroke: #A80036; stroke-width: 1.0; stroke-dasharray: 7.0,7.0;"/><polygon fill="none" points="1311.19,131.13,1291.59,123.09,1311.93,117.15,1311.19,131.13" style="stroke: #A80036; stroke-width: 1.0;"/><!--MD5=[7c0936295c5271f4d02b6fa90694d5bb]
reverse link Clickable to Shape--><path d="M1206.27,157.43 C1237.06,179.03 1275.06,206.07 1308.5,231 C1425.36,318.12 1556.44,421.38 1646.08,492.867 " fill="none" id="Clickable&lt;-Shape" style="stroke: #A80036; stroke-width: 1.0; stroke-dasharray: 7.0,7.0;"/><polygon fill="none" points="1201.91,162.92,1189.53,145.73,1209.93,151.45,1201.91,162.92" style="stroke: #A80036; stroke-width: 1.0;"/><!--MD5=[b1f4daf29d1c5ca2f179060fb2318683]
reverse link ActionManager to Action--><path d="M979.084,171.26 C1024.85,186.9 1070.99,206.54 1111.5,231 C1138.9,247.54 1164.18,273.34 1182.33,294.59 " fill="none" id="ActionManager&lt;-Action" style="stroke: #A80036; stroke-width: 1.0;"/><polygon fill="#A80036" points="966.51,167.06,970.9328,172.7555,977.8913,170.8634,973.4685,165.168,966.51,167.06" style="stroke: #A80036; stroke-width: 1.0;"/><text fill="#000000" font-family="sans-serif" font-size="13" lengthAdjust="spacingAndGlyphs" textLength="23" x="1152.5117" y="283.983">0..*</text><!--MD5=[07cf613aa7edc8992ebfbc32471eab72]
reverse link ActionManager to Game--><path d="M764.101,182.99 C770.824,198.21 778.108,214.69 785.292,230.95 " fill="none" id="ActionManager&lt;-Game" style="stroke: #A80036; stroke-width: 1.0;"/><polygon fill="#FFFFFF" points="758.841,171.09,757.6086,178.195,763.6931,182.0653,764.9255,174.9603,758.841,171.09" style="stroke: #A80036; stroke-width: 1.0;"/><!--MD5=[e1f699b984594bd771bb866295a50309]
reverse link ActionManager to Menu--><path d="M979.556,170.47 C980.874,170.65 982.188,170.83 983.5,171 C1055.56,180.54 2240.07,178.65 2290.5,231 C2357.87,300.93 2342.07,420.064 2320.83,499.4 " fill="none" id="ActionManager&lt;-Menu" style="stroke: #A80036; stroke-width: 1.0;"/><polygon fill="#FFFFFF" points="966.552,168.6,971.9206,173.4143,978.4295,170.3104,973.0609,165.496,966.552,168.6" style="stroke: #A80036; stroke-width: 1.0;"/><!--MD5=[8dcb6060f684d00c1b0a2609bbd13c81]
link ActionManager to Preferences--><path d="M574.592,171.04 C549.853,186.58 527.556,206.25 512.5,231 C411.023,397.852 449.404,500.138 547.5,669 C562.976,695.641 585.636,719.089 609.665,738.818 " fill="none" id="ActionManager-&gt;Preferences" style="stroke: #A80036; stroke-width: 1.0;"/><polygon fill="#A80036" points="613.848,742.204,609.3698,733.4321,609.9618,739.0579,604.3361,739.65,613.848,742.204" style="stroke: #A80036; stroke-width: 1.0;"/><!--MD5=[b33e17df9a5a224022847e64e078ab3d]
link Game to Shape--><path d="M1094.21,429.259 C1100,430.591 1105.77,431.841 1111.5,433 C1238.05,458.608 1275.11,423.628 1401.5,450 C1446.2,459.328 1492.82,473.259 1536.98,488.583 " fill="none" id="Game-&gt;Shape" style="stroke: #A80036; stroke-width: 1.0;"/><polygon fill="#A80036" points="1549.36,492.94,1545.0276,487.1754,1538.0401,488.9575,1542.3726,494.722,1549.36,492.94" style="stroke: #A80036; stroke-width: 1.0;"/><text fill="#000000" font-family="sans-serif" font-size="13" lengthAdjust="spacingAndGlyphs" textLength="23" x="1507.7425" y="481.7984">0..*</text><!--MD5=[bfd99c2bb4a01745b01d304b24ac0f7b]
link Game to Piece--><path d="M1094.29,428.878 C1100.06,430.325 1105.8,431.702 1111.5,433 C1180.36,448.687 1207.23,416.681 1269.5,450 C1337.36,486.307 1468.96,665.585 1532.89,756.471 " fill="none" id="Game-&gt;Piece" style="stroke: #A80036; stroke-width: 1.0;"/><polygon fill="#A80036" points="1540.52,767.365,1540.3555,760.1558,1533.6376,757.5348,1533.8021,764.7441,1540.52,767.365" style="stroke: #A80036; stroke-width: 1.0;"/><!--MD5=[edec08af5e26407c549904b034fab759]
link Game to GameBuilder--><path d="M879.776,433.108 C900.994,467.904 925.219,505.272 945.172,533.61 " fill="none" id="Game-&gt;GameBuilder" style="stroke: #A80036; stroke-width: 1.0;"/><polygon fill="#A80036" points="948.084,537.724,946.1498,528.0669,945.1955,533.6427,939.6198,532.6885,948.084,537.724" style="stroke: #A80036; stroke-width: 1.0;"/><!--MD5=[28fd0d807a5c3f3d506d162a37de0111]
reverse link GameBuilder to Game--><path d="M962.054,526.1 C946.827,498.859 926.158,464.91 905.603,433.108 " fill="none" id="GameBuilder&lt;-Game" style="stroke: #A80036; stroke-width: 1.0;"/><polygon fill="#FFFFFF" points="968.438,537.724,969.0554,530.5394,962.6608,527.2062,962.0435,534.3908,968.438,537.724" style="stroke: #A80036; stroke-width: 1.0;"/><!--MD5=[de69e0a0656d85e612885819afe126aa]
link Game to Point--><path d="M1094.3,426.965 C1131.23,440.177 1157.03,449.517 1157.5,450 C1345.81,642.888 1169.25,823.782 1347.5,1026 C1379.41,1062.198 1421.3,1090.893 1464.63,1113.382 " fill="none" id="Game-&gt;Point" style="stroke: #A80036; stroke-width: 1.0;"/><polygon fill="#A80036" points="1469.09,1115.677,1462.9139,1108.0052,1464.643,1113.3914,1459.2569,1115.1204,1469.09,1115.677" style="stroke: #A80036; stroke-width: 1.0;"/><!--MD5=[8ea9b385330ade2d52bf29e34694498c]
link Game to Preferences--><path d="M813.204,433.141 C797.717,527.936 776.371,657.469 773.5,669 C769.042,686.909 763.39,705.817 757.565,723.756 " fill="none" id="Game-&gt;Preferences" style="stroke: #A80036; stroke-width: 1.0;"/><polygon fill="#A80036" points="755.918,728.789,762.5199,721.4805,757.4738,724.0372,754.9171,718.9911,755.918,728.789" style="stroke: #A80036; stroke-width: 1.0;"/><!--MD5=[a9d714bf75bd75643fb739becf36fd87]
reverse link GameManager to Menu--><path d="M746.092,484.461 C770.131,465.013 797.988,448.403 828,441.5 C861.568,433.779 2034.43,433.779 2068,441.5 C2112.41,451.716 2156.2,474.893 2193.2,499.478 " fill="none" id="GameManager&lt;-Menu" style="stroke: #A80036; stroke-width: 1.0;"/><polygon fill="#A80036" points="736.028,492.95,743.1934,492.1392,745.2009,485.2132,738.0355,486.024,736.028,492.95" style="stroke: #A80036; stroke-width: 1.0;"/><!--MD5=[fe4be93a24d9ca2b7a5b3da6b6badf68]
reverse link GameManager to ActionManager--><path d="M571.724,481.878 C561.825,466.418 553.252,449.922 547.5,433 C518.605,347.999 503.694,309.37 547.5,231 C561.076,206.71 582.115,186.93 605.257,171.05 " fill="none" id="GameManager&lt;-ActionManager" style="stroke: #A80036; stroke-width: 1.0;"/><polygon fill="#A80036" points="579.145,492.943,579.125,485.7319,572.4609,482.9769,572.4809,490.188,579.145,492.943" style="stroke: #A80036; stroke-width: 1.0;"/><!--MD5=[c9518ead63ccee05d1bef1a28471d58b]
link GameManager to Preferences--><path d="M685.829,669.307 C691.012,687.175 696.463,705.964 701.63,723.775 " fill="none" id="GameManager-&gt;Preferences" style="stroke: #A80036; stroke-width: 1.0;"/><polygon fill="#A80036" points="703.08,728.772,704.4142,719.0139,701.687,723.97,696.7309,721.2428,703.08,728.772" style="stroke: #A80036; stroke-width: 1.0;"/><!--MD5=[224b639e27a85d63a791404ff2499156]
reverse link Shape to Piece--><path d="M1670.87,684.837 C1647.24,713.895 1622.83,743.912 1603.89,767.209 " fill="none" id="Shape&lt;-Piece" style="stroke: #A80036; stroke-width: 1.0; stroke-dasharray: 7.0,7.0;"/><polygon fill="none" points="1665.45,680.407,1683.5,669.307,1676.32,689.24,1665.45,680.407" style="stroke: #A80036; stroke-width: 1.0;"/><!--MD5=[a5b51d67bb8d5a2e18fa3db1a4a1a208]
reverse link Shape to Point--><path d="M1861.92,683.522 C1951.34,774.527 2053.16,911.014 1982.5,1026 C1961.73,1059.792 1931.37,1086.712 1897.84,1108.079 " fill="none" id="Shape&lt;-Point" style="stroke: #A80036; stroke-width: 1.0; stroke-dasharray: 7.0,7.0;"/><polygon fill="none" points="1856.91,688.405,1847.71,669.317,1866.8,678.502,1856.91,688.405" style="stroke: #A80036; stroke-width: 1.0;"/><!--MD5=[dc03ef65c5aaf10488e08743d162fbaf]
link Shape to Point--><path d="M1873.92,669.317 C1974.96,759.862 2091.95,904.862 2017.5,1026 C1990.75,1069.521 1948.09,1101.644 1902.05,1125.185 " fill="none" id="Shape-&gt;Point" style="stroke: #A80036; stroke-width: 1.0;"/><polygon fill="#A80036" points="1897.58,1127.437,1907.4178,1126.9709,1902.0478,1125.1924,1903.8264,1119.8224,1897.58,1127.437" style="stroke: #A80036; stroke-width: 1.0;"/><!--MD5=[c0c2beb63eebe7551e7e17172f8efeb7]
reverse link Shape to Triangle--><path d="M1805.47,688.173 C1830.81,757.243 1848.4,846.971 1808.5,916 C1800.1,930.527 1787.54,942.382 1773.56,951.968 " fill="none" id="Shape&lt;-Triangle" style="stroke: #A80036; stroke-width: 1.0; stroke-dasharray: 7.0,7.0;"/><polygon fill="none" points="1798.85,690.453,1798.16,669.274,1811.9,685.402,1798.85,690.453" style="stroke: #A80036; stroke-width: 1.0;"/><!--MD5=[02e4db8eada2cdde1c1e709f6981fd83]
link Piece to Triangle--><path d="M1596.81,853.776 C1613.69,879.922 1635.41,913.538 1652.88,940.588 " fill="none" id="Piece-&gt;Triangle" style="stroke: #A80036; stroke-width: 1.0;"/><polygon fill="#A80036" points="1660.08,951.737,1660.1874,944.5267,1653.5731,941.6544,1653.4657,948.8647,1660.08,951.737" style="stroke: #A80036; stroke-width: 1.0;"/><text fill="#000000" font-family="sans-serif" font-size="13" lengthAdjust="spacingAndGlyphs" textLength="23" x="1630.8599" y="940.8771">0..*</text><!--MD5=[0553e4809ab8175c6c8965bac7c2d876]
link Piece to Point--><path d="M1480.54,853.519 C1408.32,893.753 1324.78,958.209 1366.5,1026 C1389.94,1064.09 1425.56,1093.442 1464.56,1115.948 " fill="none" id="Piece-&gt;Point" style="stroke: #A80036; stroke-width: 1.0;"/><polygon fill="#A80036" points="1469.34,1118.659,1463.4929,1110.7336,1464.9933,1116.1878,1459.5391,1117.6883,1469.34,1118.659" style="stroke: #A80036; stroke-width: 1.0;"/><!--MD5=[6382a0bfd3486f3518a7ddfe8791dfca]
link Point to Preferences--><path d="M1469.33,1116.525 C1389.74,1089.644 1299,1057.735 1217.5,1026 C1088.01,975.582 942.462,910.969 843.683,865.893 " fill="none" id="Point-&gt;Preferences" style="stroke: #A80036; stroke-width: 1.0;"/><polygon fill="#A80036" points="839.014,863.762,845.5383,871.1399,843.562,865.8395,848.8623,863.8632,839.014,863.762" style="stroke: #A80036; stroke-width: 1.0;"/><!--MD5=[a32e19b7e124822e7b45f66b6a3a30e8]
reverse link Triangle to Point--><path d="M1683.5,1039.822 C1683.5,1053.887 1683.5,1069.715 1683.5,1085.626 " fill="none" id="Triangle&lt;-Point" style="stroke: #A80036; stroke-width: 1.0;"/><polygon fill="#A80036" points="1683.5,1026.407,1679.5,1032.407,1683.5,1038.407,1687.5,1032.407,1683.5,1026.407" style="stroke: #A80036; stroke-width: 1.0;"/><text fill="#000000" font-family="sans-serif" font-size="13" lengthAdjust="spacingAndGlyphs" textLength="8" x="1675.2188" y="1075.0544">3</text><!--MD5=[fe43392c67d96649d4c2452720bcb72f]
reverse link Drawable to Button--><path d="M2134.49,378.516 C2119.13,398.921 2103.4,424.183 2095.5,450 C2067.02,543.073 2053.78,581.059 2095.5,669 C2111.78,703.314 2140.99,732.023 2170.78,754.359 " fill="none" id="Drawable&lt;-Button" style="stroke: #A80036; stroke-width: 1.0; stroke-dasharray: 7.0,7.0;"/><polygon fill="none" points="2129.2,373.919,2147.12,362.613,2140.16,382.627,2129.2,373.919" style="stroke: #A80036; stroke-width: 1.0;"/><!--MD5=[f3cf361b95ce8b727d865465f1342583]
reverse link Drawable to Menu--><path d="M2197.63,381.014 C2213.8,414.564 2235.77,460.171 2254.6,499.259 " fill="none" id="Drawable&lt;-Menu" style="stroke: #A80036; stroke-width: 1.0; stroke-dasharray: 7.0,7.0;"/><polygon fill="none" points="2191.23,383.85,2188.85,362.794,2203.84,377.774,2191.23,383.85" style="stroke: #A80036; stroke-width: 1.0;"/><!--MD5=[affd1162934e977abfbbf152e4a9f66e]
reverse link Drawable to Shape--><path d="M2106.96,372.722 C2051.97,405.06 1972.32,451.899 1902.65,492.873 " fill="none" id="Drawable&lt;-Shape" style="stroke: #A80036; stroke-width: 1.0; stroke-dasharray: 7.0,7.0;"/><polygon fill="none" points="2103.47,366.653,2124.26,362.549,2110.56,378.721,2103.47,366.653" style="stroke: #A80036; stroke-width: 1.0;"/><!--MD5=[690585a734dfa50a6198e7200b5c2a6f]
link Button to Point--><path d="M2215.06,866.732 C2168.81,913.301 2097.97,979.59 2027.5,1026 C1988.62,1051.602 1944.99,1075.263 1902.2,1096.103 " fill="none" id="Button-&gt;Point" style="stroke: #A80036; stroke-width: 1.0;"/><polygon fill="#A80036" points="1897.52,1098.37,1907.364,1098.06,1902.0229,1096.1965,1903.8864,1090.8554,1897.52,1098.37" style="stroke: #A80036; stroke-width: 1.0;"/><!--MD5=[3a573dd360bc593f62f3acf8e762ca89]
reverse link Menu to Button--><path d="M2282.81,675.541 C2279.74,702.358 2276.5,730.723 2273.8,754.414 " fill="none" id="Menu&lt;-Button" style="stroke: #A80036; stroke-width: 1.0;"/><polygon fill="#A80036" points="2284.3,662.528,2279.6441,668.0346,2282.9363,674.4503,2287.5923,668.9437,2284.3,662.528" style="stroke: #A80036; stroke-width: 1.0;"/><text fill="#000000" font-family="sans-serif" font-size="13" lengthAdjust="spacingAndGlyphs" textLength="23" x="2250.1338" y="743.3409">0..*</text><!--MD5=[5a544278eda70fab9565c33c26040c67]
reverse link Menu to Shape--><path d="M2099.81,581 C2072.96,581 2046.11,581 2019.26,581 " fill="none" id="Menu&lt;-Shape" style="stroke: #A80036; stroke-width: 1.0;"/><polygon fill="#A80036" points="2113,581,2107,577,2101,581,2107,585,2113,581" style="stroke: #A80036; stroke-width: 1.0;"/><text fill="#000000" font-family="sans-serif" font-size="13" lengthAdjust="spacingAndGlyphs" textLength="23" x="2026.5982" y="577.8688">0..*</text><!--MD5=[5cb459226475dd845fe77285b71db981]
@startuml
Class Main

Package Controller {
    Interface Clickable<CoordinateType> {
        isClicked(const Point<CoordinateType> &) : bool
    }
    Class Action {
        Action()
        operator()(sf::Event) : void
    }
    Class ActionManager {
        ActionManager(std::shared_ptr<Game>, std::shared_ptr<Menu>)
        setGame(std::shared_ptr<Game>) : void
        setMenu(std::shared_ptr<Menu>) : void
        registerEvent(sf::Event::EventType, const std::function<void (sf::Event)>) : void
        getAction(sf::Event::EventType) : Action &
    }
    Class FileUtils{
        static readFile(const char *) : std::vector<Point<double>>
    	static writeFile(std::vector<Point<double>>, std::string) : void
    }
    Class Game{
	    Game(std::vector<std::shared_ptr<Shape<double>>>, std::unique_ptr<Piece<double>>)
	    Game()
        static init(const char *) : std::shared_ptr<Game>
    	draw(sf::RenderWindow &) : void
    	select(const Point<double> &) : void
    	deselect() : void
    	centralizeSelected(const Point<double>) : void
    	rotateSelected(const double) : void
    	save(std::string) : void
    	magnetize() : void
    	validateShape() : void
    	getGameState() : bool
    }
    Class GameBuilder {
        GameBuilder()
    	withShape(std::shared_ptr<Shape<double>>) : void
    	build(const char *) : std::shared_ptr<Game>
    }
    Class GameManager {
       GameManager() : 
        draw() const : void
        play() : void
        isRunning() : bool
        initMainGameButtons() : void
        initMainMenuButtons() : void
        initCreateLevelButtons() : void
        initLoadGameButtons(int) : void
        initSaveGameButton() : void
        initWinScreenButtons() : void
    }
    Class Preferences {
        static getInstance() : Preferences *
        setMagnetism(double) : void
        setRotationPerSpinning(double) : void
        setTolerance(double tolerance) : void
        setGameButtonHeight(double) : void
        getMagnetism() : double
        getRotationPerSpinning() : double
        getTolerance() : double
        getGameButtonHeight() : double
    }
}

Package Model {
    Interface Shape<CoordinateType> {
        center() : Point<CoordinateType>
        centralizeRelative(const Point<CoordinateType> &, const Point<CoordinateType> &) : void
        rotate(const Point<CoordinateType> &, double) : void
        isClicked(const Point<CoordinateType> &) : bool
        getPoints() : std::vector<Point<CoordinateType>>
        distance(Shape<CoordinateType> *, std::vector<Point<double>> &) : double
        translate(const Point<CoordinateType> &) : void
        isInsideWindow(Point<CoordinateType> &) : void
        reduceSize(int) : void
        rotate(const float) : void
    }
    Class Piece<CoordinateType> {
	    Piece(int, sf::Color, const CoordinateType *)
	    Piece(sf::Color, std::vector<Point<CoordinateType>>)
	    static createPiece(const char *) : std::unique_ptr<Piece<CoordinateType>>
	}
    Class Point<CoordinateType> {
        Point(CoordinateType, CoordinateType)
        Point(sf::Event::MouseButtonEvent)
        Point(sf::Event::MouseMoveEvent)
        getX() : CoordinateType
        getY() : CoordinateType
        operator==(const Point<CoordinateType> &) : bool
        operator!=(const Point<CoordinateType> &) : bool
        operator+(const Point &) : Point<CoordinateType>
        operator-(const Point &) : Point<CoordinateType>
        operator/(const CoordinateType &) : Point<CoordinateType>
        operator+=(const Point<CoordinateType> &) : Point<CoordinateType>&
        operator<(const Point<CoordinateType> &) : bool
    }
    Class Triangle<CoordinateType> {
        Triangle(Point<CoordinateType>, Point<CoordinateType>, Point<CoordinateType>, sf::Color)
        std::vector<CoordinateType> calculateBarycentricCoordinates(const Point<CoordinateType> &) const;
    }
}

Package View {
    Interface Drawable {
        draw(sf::RenderWindow &) : void
    }
    Class Button {
        Button(int, int, int, int, std::string, std::function<void()>)
        void callFct();
        Point<double> center() const;
        void setText(char input);
        std::string getInputText();
    }
    Class Menu {
        Menu()
        static std::shared_ptr<Menu> init();
        void addButton(std::unique_ptr<Button> button);
        void setInputBox(std::unique_ptr<Button> inputBox);
        void select(const Point<double> &);
        void clear();
        void addDecorationPiece(std::shared_ptr<Shape<double>>);
        void setText(char);
        std::string getInputBoxText();
    }
}

Main *- - GameManager
Game - -> GameManager
Clickable <|.. Button
Clickable <|.. Shape
ActionManager *- - "0..*" Action
ActionManager o- - Game
ActionManager o- - Menu
ActionManager - -> Preferences
Game - -* "0..*" Shape
Game - -* Piece
Game - -> GameBuilder
Game - -> Point
Game - -> Preferences
GameBuilder o- - Game
GameManager *- - Game
GameManager *- - Menu
GameManager *- - ActionManager
GameManager - -> Preferences
Shape <|.. Piece
Shape <|.. Point
Shape <|.. Triangle
Shape - -> Point
Piece - -* "0..*" Triangle
Piece - -> Point
Point - -> Preferences
Triangle *- - "3" Point
Drawable <|.. Button
Drawable <|.. Menu
Drawable <|.. Shape
Button - -> Point
Menu *- - "0..*" Button
Menu *- - "0..*" Shape
@enduml

PlantUML version 1.2020.02(Sun Mar 01 10:22:07 UTC 2020)
(GPL source distribution)
Java Runtime: Java(TM) SE Runtime Environment
JVM: Java HotSpot(TM) 64-Bit Server VM
Java Version: 1.7.0_25-b15
Operating System: Linux
Default Encoding: UTF-8
Language: en
Country: US
--></g></svg>